<?xml version="1.0" encoding="UTF-8" standalone="no"?>
<!DOCTYPE svg PUBLIC "-//W3C//DTD SVG 1.1//EN" "http://www.w3.org/Graphics/SVG/1.1/DTD/svg11.dtd">
<svg width="256" height="256" viewBox="0 0 66.867 66.741" xmlns="http://www.w3.org/2000/svg">
    <path d="m33.433 11.204-8.1699 28.229c1.9826 0.06049 3.559 1.6844 3.5605 3.668-0.000368 2.0278-1.6441 3.6715-3.6719 3.6719-2.0278-0.000367-3.6715-1.6441-3.6719-3.6719 0.002-1.4606 0.86936-2.7812 2.209-3.3633-6.36-6.587-19.447-17.199-19.447-17.199l9.748 32.998h19.443 19.443l9.748-32.998s-13.087 10.612-19.447 17.197c1.3396 0.58207 2.207 1.9027 2.209 3.3633-0.000368 2.0278-1.6441 3.6715-3.6719 3.6719-2.0278-0.000367-3.6715-1.6441-3.6719-3.6719 0.0015-1.9836 1.5779-3.6075 3.5605-3.668l-8.169-28.227z"/>
</svg>